<?xml version="1.0" encoding="utf-8"?>
<!-- Generator: Adobe Illustrator 21.0.2, SVG Export Plug-In . SVG Version: 6.00 Build 0)  -->
<svg version="1.1" id="Ebene_1" xmlns="http://www.w3.org/2000/svg" xmlns:xlink="http://www.w3.org/1999/xlink" x="0px" y="0px"
	 viewBox="0 0 244 68" style="enable-background:new 0 0 244 68;" xml:space="preserve">
<style type="text/css">
	.st0{fill:#333333;}
	.st1{fill:#FF8700;}
	.st2{fill:#999999;}
</style>
<title>Zeichenfläche 1</title>
<path class="st0" d="M86.1,13.7v22.5h-5.3V13.7h-5.6V9h16.5v4.7H86.1z"/>
<path class="st0" d="M105,24.2v12h-5.4v-12L92.4,9h5.8l4.3,10.5L106.8,9h5.5L105,24.2z"/>
<path class="st0" d="M123,26.8h-2.2v9.4h-5.3V9c0,0,3.9-0.4,7.2-0.4c7,0,9,3.3,9,9.1C131.6,24.4,128.6,26.8,123,26.8z M123.3,13.2
	c-0.8,0-1.7,0.1-2.5,0.2v8.7h2.4c1.8,0,3-1.7,3-4.3C126.2,14.9,125.5,13.2,123.3,13.2L123.3,13.2z"/>
<path class="st0" d="M144,36.6c-7.7,0-9.1-4.8-9.1-14.3c0-9.1,1.6-13.7,9.1-13.7s9.1,4.5,9.1,13.7C153.1,31.8,151.7,36.6,144,36.6z
	 M144,12.8c-2.8,0-3.7,1.7-3.7,9.7s0.9,9.9,3.7,9.9s3.7-2.1,3.7-9.9S146.8,12.8,144,12.8L144,12.8z"/>
<path class="st0" d="M162.9,36.5c-1.8-0.1-3.7-0.3-5.5-0.7v-4.3c1.6,0.4,3.2,0.6,4.9,0.7c1.9,0,3.1-1.3,3.1-3.7c0-3-0.8-4.3-3.1-4.3
	h-3V20h2.6c2.2,0,3.1-1.4,3.1-3.7s-0.8-3.3-2.7-3.3c-1.5,0.1-3.1,0.3-4.6,0.7V9.3c1.7-0.4,3.4-0.6,5.1-0.7c5,0,7.4,1.8,7.4,7.7
	c0,2.3-0.8,4.7-2.9,5.5c2.1,0.4,3.4,2.4,3.4,6.3C170.5,34.6,167.2,36.5,162.9,36.5z"/>
<path class="st0" d="M199.5,35.9c-1.5,0.3-3.1,0.5-4.7,0.6c-6,0-8.6-2.5-8.6-14.3s3.2-13.4,9.1-13.4c1.4,0.1,2.8,0.2,4.2,0.5V14
	c-1.5-0.4-3.1-0.5-4.7-0.6c-2.3,0-3.2,1-3.2,9.1s0.9,9.4,3.2,9.4c1.6,0,3.2-0.2,4.7-0.6V35.9z"/>
<path class="st0" d="M219.4,36.2V12.9L216,27h-4l-3.5-14.1v23.3h-4.8V9h8.1l2.3,10.5L216.5,9h7.7v27.2H219.4z"/>
<path class="st0" d="M233.7,36.4c-1.9,0-3.7-0.2-5.5-0.6v-4.6c1.7,0.4,3.4,0.6,5.1,0.6c2.4,0,4-0.9,4-3.4c0-2.8-1.2-3.7-3.3-4.2
	c-4.3-0.9-6-3.3-6-7.8c0-5.8,3.3-7.8,9.3-7.8c1.6,0,3.2,0.2,4.8,0.6v4.6c-1.7-0.3-3.5-0.5-5.2-0.6c-2.2,0-3.5,0.8-3.5,2.8
	c0,2.5,0.6,3,3.1,3.5c3.7,0.8,6.3,2.7,6.3,8.5C242.6,35.4,238.8,36.4,233.7,36.4z"/>
<path class="st1" d="M45.8,43.4c-0.8,0.3-1.7,0.4-2.5,0.4c-7.6,0-18.8-26.6-18.8-35.5c0-3.3,0.8-4.4,1.9-5.3
	C17,4.1,5.8,7.5,2.3,11.8c-0.9,1.5-1.4,3.2-1.3,5C1,30.6,15.8,62,26.2,62C31,62,39.1,54.1,45.8,43.4"/>
<path class="st1" d="M41,2c9.6,0,19.3,1.6,19.3,7c0,11-7,24.4-10.6,24.4c-6.4,0-14.3-17.7-14.3-26.6C35.4,2.8,36.9,2,41,2"/>
<g>
	<path class="st2" d="M75.1,60.7v-1.5h1.4V48.1h-1.4v-1.5h4.6v1.5h-1.4v11.1h1.4v1.5H75.1z"/>
	<path class="st2" d="M86.2,60.7l-3.1-12.6v12.6h-1.6V46.6h2.9l3.1,12.6V46.6H89v14.1H86.2z"/>
	<path class="st2" d="M95.1,48.1v12.5h-1.7V48.1h-3.1v-1.5h7.9v1.5H95.1z"/>
	<path class="st2" d="M104.6,54.6l2.7,6.1h-1.9l-2.6-5.8h-1.8v5.8h-1.7V46.6c0,0,1.7-0.1,3.4-0.1c3.1,0,3.9,1.6,3.9,4.1
		C106.6,52.6,106.1,54,104.6,54.6z M103,47.9c-1.1,0-1.9,0.1-1.9,0.1v5.3h1.9c1.1,0,1.9-0.5,1.9-2.7C104.9,48.8,104.4,47.9,103,47.9
		z"/>
	<path class="st2" d="M112.5,60.8c-3.3,0-4.2-2.4-4.2-7.3c0-4.7,0.9-7,4.2-7s4.2,2.3,4.2,7C116.7,58.4,115.8,60.8,112.5,60.8z
		 M112.5,47.9c-1.8,0-2.4,1.2-2.4,5.6c0,4.3,0.6,5.8,2.4,5.8s2.4-1.4,2.4-5.8C114.9,49.2,114.3,47.9,112.5,47.9z"/>
	<path class="st2" d="M122.4,60.8c-1.6,0-3.5-0.1-3.5-0.1V46.6c0,0,1.9-0.1,3.3-0.1c2.8,0,4.3,1,4.3,6.9
		C126.4,59.4,125.1,60.8,122.4,60.8z M122.6,47.9c-0.7,0-1.9,0.1-1.9,0.1v11.2c0,0,1.1,0.1,1.9,0.1c1.2,0,2.1-1.4,2.1-5.8
		C124.7,48.8,123.8,47.9,122.6,47.9z"/>
	<path class="st2" d="M136.1,56.9c0,2.7-1.4,3.9-3.8,3.9c-2.3,0-3.8-1.1-3.8-3.9V46.6h1.7v10.7c0,1.4,0.8,2,2,2c1.2,0,2-0.6,2-2
		V46.6h1.7V56.9z"/>
	<path class="st2" d="M144.5,60.5c-0.4,0.1-1.6,0.3-2.2,0.3c-2.9,0-4.1-1.4-4.1-7.4c0-5.9,1.4-6.9,4.3-6.9c0.6,0,1.4,0.1,2,0.3v1.5
		c-0.7-0.2-1.6-0.3-2.3-0.3c-1.5,0-2.1,0.7-2.1,5.6c0,5.1,0.7,5.7,2.2,5.7c0.8,0,1.8-0.2,2.3-0.3V60.5z"/>
	<path class="st2" d="M149.7,48.1v12.5H148V48.1h-3.1v-1.5h7.9v1.5H149.7z"/>
	<path class="st2" d="M153.2,60.7v-1.5h1.4V48.1h-1.4v-1.5h4.6v1.5h-1.4v11.1h1.4v1.5H153.2z"/>
	<path class="st2" d="M163.3,60.8c-3.3,0-4.2-2.4-4.2-7.3c0-4.7,0.9-7,4.2-7c3.3,0,4.2,2.3,4.2,7C167.5,58.4,166.7,60.8,163.3,60.8z
		 M163.3,47.9c-1.8,0-2.4,1.2-2.4,5.6c0,4.3,0.6,5.8,2.4,5.8c1.8,0,2.4-1.4,2.4-5.8C165.8,49.2,165.2,47.9,163.3,47.9z"/>
	<path class="st2" d="M174.4,60.7l-3.1-12.6v12.6h-1.6V46.6h2.8l3.1,12.6V46.6h1.6v14.1H174.4z"/>
	<path class="st2" d="M187.8,55.4h-1.7v5.3h-1.7V46.6c0,0,1.7-0.1,3.4-0.1c3.1,0,3.9,1.9,3.9,4.4C191.7,53.9,190.6,55.4,187.8,55.4z
		 M188,47.9c-1.1,0-1.9,0.1-1.9,0.1v5.9h1.9c1.1,0,1.9-0.7,1.9-2.9C189.9,49,189.4,47.9,188,47.9z"/>
	<path class="st2" d="M198.8,60.7l-0.8-3.6h-3.9l-0.8,3.6h-1.8l3.4-14.1h2.3l3.3,14.1H198.8z M196.1,47.9l-1.6,7.7h3.3L196.1,47.9z"
		/>
	<path class="st2" d="M207.5,60.5c-0.4,0.1-1.6,0.3-2.2,0.3c-2.9,0-4.1-1.4-4.1-7.4c0-5.9,1.4-6.9,4.3-6.9c0.6,0,1.4,0.1,2,0.3v1.5
		c-0.7-0.2-1.6-0.3-2.3-0.3c-1.5,0-2.1,0.7-2.1,5.6c0,5.1,0.7,5.7,2.2,5.7c0.8,0,1.8-0.2,2.3-0.3V60.5z"/>
	<path class="st2" d="M214.9,60.7l-3.1-6.4l-0.7,1.2v5.2h-1.7V46.6h1.7v6.2l3.8-6.2h1.9l-3.8,6.1l4,7.9H214.9z"/>
	<path class="st2" d="M224.4,60.7l-0.8-3.6h-3.9l-0.8,3.6h-1.8l3.4-14.1h2.3l3.3,14.1H224.4z M221.7,47.9l-1.6,7.7h3.3L221.7,47.9z"
		/>
	<path class="st2" d="M234.1,60.5c-1.1,0.2-2.1,0.3-3.2,0.3c-3.1,0-4.2-1.4-4.2-7.4c0-5.9,1.5-6.9,4.7-6.9c0.7,0,1.7,0.2,2.2,0.3
		v1.4c-0.8-0.2-1.7-0.3-2.6-0.3c-1.7,0-2.5,0.8-2.5,5.6c0,5.1,0.7,5.8,2.3,5.8c0.5,0,1.1-0.1,1.6-0.1v-4.5h-1.8v-1.5h3.5V60.5z"/>
	<path class="st2" d="M236.4,60.7V46.6h6.6v1.5h-4.8v4.6h4.3v1.5h-4.3v5.1h4.8v1.5H236.4z"/>
</g>
</svg>
