<?xml version="1.0" ?><svg enable-background="new 0 0 512 512" version="1.1" viewBox="0 0 512 512" xml:space="preserve" xmlns="http://www.w3.org/2000/svg" xmlns:xlink="http://www.w3.org/1999/xlink"><g id="Layer_6"/><g id="Layer_2"><path d="M363.747,148.753c-59.228-59.227-155.267-59.227-214.494,0c-59.227,59.228-59.227,155.267,0,214.494   c59.228,59.227,155.267,59.227,214.494,0C422.974,304.02,422.974,207.98,363.747,148.753z M256.853,281.81l-71.418,71.418   l-26.163-26.163l71.417-71.418l-70.71-70.711l25.456-25.456l70.711,70.71l70.711-70.71l26.163,26.163l-70.711,70.71l70.711,70.711   l-25.456,25.456L256.853,281.81z" fill="#252525"/></g><g id="Layer_3"><circle cx="256" cy="256.354" fill="#FFFFFF" r="122.687"/></g><g id="Layer_7"><g><path d="M332.461,253.354c2.858,1.65,2.858,4.35,0,6l-112.094,64.717c-2.858,1.65-5.196,0.3-5.196-3V191.636    c0-3.3,2.338-4.65,5.196-3L332.461,253.354z" fill="#252525"/></g></g></svg>