<svg xmlns="http://www.w3.org/2000/svg" viewBox="0 0 256 256"><title>ext_icon_crawler</title><g id="Ebene_2" data-name="Ebene 2"><g id="Ebene_1-2" data-name="Ebene 1"><rect width="256" height="256" style="fill:#4c7e3a"/><path d="M130.52,71c13.31,1.13,24.9,11.59,31.57,27l13-9.26L185.6,46.59a4.56,4.56,0,0,1,8.82,2.2l-10.91,43.7a4.83,4.83,0,0,1-1.76,2.6l-16.47,11.77a77,77,0,0,1,2,10.31l19.19-2.91,33.8-20.47a4.54,4.54,0,1,1,4.7,7.77l-34.58,21a4.7,4.7,0,0,1-1.67.59L168,126.24v2.94l20.68,3.14a4.48,4.48,0,0,1,1.67.61l34.78,21a4.53,4.53,0,0,1-2.45,8.43h0a4.5,4.5,0,0,1-2.45-.64l-33.8-20.46-19-2.89a80,80,0,0,1-2.06,10.51l16.32,11.67a4.59,4.59,0,0,1,1.77,2.6l10.9,43.67a4.56,4.56,0,0,1-3.3,5.54h0a6.73,6.73,0,0,1-1.1,0,4.54,4.54,0,0,1-4.41-3.45L175,166.86l-12.59-9.07a50.76,50.76,0,0,1-16,21.37,26.52,26.52,0,0,1,1,7.35c0,12.58-8.66,22.75-19.34,22.75s-19.34-10.17-19.34-22.75a26.15,26.15,0,0,1,1-7.35,50.76,50.76,0,0,1-15.79-21l-12.86,9.19L70.57,209.43a4.55,4.55,0,0,1-8.82-2.25h0l10.9-43.71a4.7,4.7,0,0,1,1.77-2.59l16.4-11.67a76.76,76.76,0,0,1-2.09-10.39l-19.19,2.94-33.8,20.46a4.4,4.4,0,0,1-2.45.62,4.56,4.56,0,0,1-2.45-8.46l34.58-20.93a5,5,0,0,1,1.67-.61L88,129.67v-2.84l-20.73-3.14a4.54,4.54,0,0,1-1.67-.61L31,102a4.56,4.56,0,0,1,4.71-7.8l33.8,20.49,19.19,2.92a73.53,73.53,0,0,1,2.11-10.49L74.44,95.46a4.58,4.58,0,0,1-1.76-2.6L61.89,49.16a4.56,4.56,0,1,1,8.68-2.82l.15.61L81.23,89l12.82,9.19c6.64-15.49,18.29-26.1,31.64-27.28Z" style="fill:#fff"/><rect x="125.69" width="4.83" height="81.18" style="fill:#fff"/></g></g></svg>